# xmcd
#
# Track frame offsets:
#	150
#	14428
#	31995
#	52241
#	66655
#	78467
#	92222
#	109044
#	123921
#	141456
#	159486
#	179359
#	190014
#	204792
#
# Disc length: 2951 seconds
#
# Revision: 0
# Processed by: cddbd v1.5.2PL0 Copyright (c) Steve Scherf et al.
# Submitted via: EasyCDDAExtractor 16.0.6.1
#
DISCID=c50b850e
DTITLE=Various  - Ciao Italia! 2 Cd3
DYEAR=2012
DGENRE=Ακουστικά
TTITLE0=A Chi
TTITLE1=D' amore Si Muore
TTITLE2=Piccola E Fragile
TTITLE3=Avevo Un Cuore Che Ti Amava Tanto
TTITLE4=La Donna Di Picche
TTITLE5=Un Uomo Vivo
TTITLE6=Ricominciamo
TTITLE7=La Nostra Favola
TTITLE8=Tanto Pe Canta
TTITLE9=Donna Con Te
TTITLE10=La Lontananza
TTITLE11='A Tazza 'E Caffe
TTITLE12=Parlami D' amore Mariu
TTITLE13=Chitarra Suona Piu Piano
EXTD=
EXTT0=
EXTT1=
EXTT2=
EXTT3=
EXTT4=
EXTT5=
EXTT6=
EXTT7=
EXTT8=
EXTT9=
EXTT10=
EXTT11=
EXTT12=
EXTT13=
PLAYORDER=
